<?xml version="1.0" encoding="utf-8" standalone="no"?>
<!DOCTYPE svg PUBLIC "-//W3C//DTD SVG 1.1//EN"
  "http://www.w3.org/Graphics/SVG/1.1/DTD/svg11.dtd">
<svg xmlns:xlink="http://www.w3.org/1999/xlink" width="720pt" height="432pt" viewBox="0 0 720 432" xmlns="http://www.w3.org/2000/svg" version="1.1">
 <metadata>
  <rdf:RDF xmlns:dc="http://purl.org/dc/elements/1.1/" xmlns:cc="http://creativecommons.org/ns#" xmlns:rdf="http://www.w3.org/1999/02/22-rdf-syntax-ns#">
   <cc:Work>
    <dc:type rdf:resource="http://purl.org/dc/dcmitype/StillImage"/>
    <dc:date>2025-06-04T14:51:27.417264</dc:date>
    <dc:format>image/svg+xml</dc:format>
    <dc:creator>
     <cc:Agent>
      <dc:title>Matplotlib v3.10.3, https://matplotlib.org/</dc:title>
     </cc:Agent>
    </dc:creator>
   </cc:Work>
  </rdf:RDF>
 </metadata>
 <defs>
  <style type="text/css">*{stroke-linejoin: round; stroke-linecap: butt}</style>
 </defs>
 <g id="figure_1">
  <g id="patch_1">
   <path d="M 0 432 
L 720 432 
L 720 0 
L 0 0 
z
" style="fill: #ffffff"/>
  </g>
  <g id="axes_1">
   <g id="patch_2">
    <path d="M 63.47 386.728 
L 709.2 386.728 
L 709.2 26.88 
L 63.47 26.88 
z
" style="fill: #ffffff"/>
   </g>
   <g id="matplotlib.axis_1">
    <g id="xtick_1">
     <g id="line2d_1">
      <path d="M 74.412693 386.728 
L 74.412693 26.88 
" clip-path="url(#p4d9897d4a6)" style="fill: none; stroke: #b0b0b0; stroke-width: 0.8; stroke-linecap: square"/>
     </g>
     <g id="line2d_2">
      <defs>
       <path id="me0740c18fa" d="M 0 0 
L 0 3.5 
" style="stroke: #000000; stroke-width: 0.8"/>
      </defs>
      <g>
       <use xlink:href="#me0740c18fa" x="74.412693" y="386.728" style="stroke: #000000; stroke-width: 0.8"/>
      </g>
     </g>
     <g id="text_1">
      <!-- $\mathdefault{10^{-9}}$ -->
      <g transform="translate(62.662693 401.326437) scale(0.1 -0.1)">
       <defs>
        <path id="DejaVuSans-31" d="M 794 531 
L 1825 531 
L 1825 4091 
L 703 3866 
L 703 4441 
L 1819 4666 
L 2450 4666 
L 2450 531 
L 3481 531 
L 3481 0 
L 794 0 
L 794 531 
z
" transform="scale(0.015625)"/>
        <path id="DejaVuSans-30" d="M 2034 4250 
Q 1547 4250 1301 3770 
Q 1056 3291 1056 2328 
Q 1056 1369 1301 889 
Q 1547 409 2034 409 
Q 2525 409 2770 889 
Q 3016 1369 3016 2328 
Q 3016 3291 2770 3770 
Q 2525 4250 2034 4250 
z
M 2034 4750 
Q 2819 4750 3233 4129 
Q 3647 3509 3647 2328 
Q 3647 1150 3233 529 
Q 2819 -91 2034 -91 
Q 1250 -91 836 529 
Q 422 1150 422 2328 
Q 422 3509 836 4129 
Q 1250 4750 2034 4750 
z
" transform="scale(0.015625)"/>
        <path id="DejaVuSans-2212" d="M 678 2272 
L 4684 2272 
L 4684 1741 
L 678 1741 
L 678 2272 
z
" transform="scale(0.015625)"/>
        <path id="DejaVuSans-39" d="M 703 97 
L 703 672 
Q 941 559 1184 500 
Q 1428 441 1663 441 
Q 2288 441 2617 861 
Q 2947 1281 2994 2138 
Q 2813 1869 2534 1725 
Q 2256 1581 1919 1581 
Q 1219 1581 811 2004 
Q 403 2428 403 3163 
Q 403 3881 828 4315 
Q 1253 4750 1959 4750 
Q 2769 4750 3195 4129 
Q 3622 3509 3622 2328 
Q 3622 1225 3098 567 
Q 2575 -91 1691 -91 
Q 1453 -91 1209 -44 
Q 966 3 703 97 
z
M 1959 2075 
Q 2384 2075 2632 2365 
Q 2881 2656 2881 3163 
Q 2881 3666 2632 3958 
Q 2384 4250 1959 4250 
Q 1534 4250 1286 3958 
Q 1038 3666 1038 3163 
Q 1038 2656 1286 2365 
Q 1534 2075 1959 2075 
z
" transform="scale(0.015625)"/>
       </defs>
       <use xlink:href="#DejaVuSans-31" transform="translate(0 0.765625)"/>
       <use xlink:href="#DejaVuSans-30" transform="translate(63.623047 0.765625)"/>
       <use xlink:href="#DejaVuSans-2212" transform="translate(128.203125 39.046875) scale(0.7)"/>
       <use xlink:href="#DejaVuSans-39" transform="translate(186.855469 39.046875) scale(0.7)"/>
      </g>
     </g>
    </g>
    <g id="xtick_2">
     <g id="line2d_3">
      <path d="M 175.318684 386.728 
L 175.318684 26.88 
" clip-path="url(#p4d9897d4a6)" style="fill: none; stroke: #b0b0b0; stroke-width: 0.8; stroke-linecap: square"/>
     </g>
     <g id="line2d_4">
      <g>
       <use xlink:href="#me0740c18fa" x="175.318684" y="386.728" style="stroke: #000000; stroke-width: 0.8"/>
      </g>
     </g>
     <g id="text_2">
      <!-- $\mathdefault{10^{-8}}$ -->
      <g transform="translate(163.568684 401.326437) scale(0.1 -0.1)">
       <defs>
        <path id="DejaVuSans-38" d="M 2034 2216 
Q 1584 2216 1326 1975 
Q 1069 1734 1069 1313 
Q 1069 891 1326 650 
Q 1584 409 2034 409 
Q 2484 409 2743 651 
Q 3003 894 3003 1313 
Q 3003 1734 2745 1975 
Q 2488 2216 2034 2216 
z
M 1403 2484 
Q 997 2584 770 2862 
Q 544 3141 544 3541 
Q 544 4100 942 4425 
Q 1341 4750 2034 4750 
Q 2731 4750 3128 4425 
Q 3525 4100 3525 3541 
Q 3525 3141 3298 2862 
Q 3072 2584 2669 2484 
Q 3125 2378 3379 2068 
Q 3634 1759 3634 1313 
Q 3634 634 3220 271 
Q 2806 -91 2034 -91 
Q 1263 -91 848 271 
Q 434 634 434 1313 
Q 434 1759 690 2068 
Q 947 2378 1403 2484 
z
M 1172 3481 
Q 1172 3119 1398 2916 
Q 1625 2713 2034 2713 
Q 2441 2713 2670 2916 
Q 2900 3119 2900 3481 
Q 2900 3844 2670 4047 
Q 2441 4250 2034 4250 
Q 1625 4250 1398 4047 
Q 1172 3844 1172 3481 
z
" transform="scale(0.015625)"/>
       </defs>
       <use xlink:href="#DejaVuSans-31" transform="translate(0 0.765625)"/>
       <use xlink:href="#DejaVuSans-30" transform="translate(63.623047 0.765625)"/>
       <use xlink:href="#DejaVuSans-2212" transform="translate(128.203125 39.046875) scale(0.7)"/>
       <use xlink:href="#DejaVuSans-38" transform="translate(186.855469 39.046875) scale(0.7)"/>
      </g>
     </g>
    </g>
    <g id="xtick_3">
     <g id="line2d_5">
      <path d="M 276.224674 386.728 
L 276.224674 26.88 
" clip-path="url(#p4d9897d4a6)" style="fill: none; stroke: #b0b0b0; stroke-width: 0.8; stroke-linecap: square"/>
     </g>
     <g id="line2d_6">
      <g>
       <use xlink:href="#me0740c18fa" x="276.224674" y="386.728" style="stroke: #000000; stroke-width: 0.8"/>
      </g>
     </g>
     <g id="text_3">
      <!-- $\mathdefault{10^{-7}}$ -->
      <g transform="translate(264.474674 401.326437) scale(0.1 -0.1)">
       <defs>
        <path id="DejaVuSans-37" d="M 525 4666 
L 3525 4666 
L 3525 4397 
L 1831 0 
L 1172 0 
L 2766 4134 
L 525 4134 
L 525 4666 
z
" transform="scale(0.015625)"/>
       </defs>
       <use xlink:href="#DejaVuSans-31" transform="translate(0 0.684375)"/>
       <use xlink:href="#DejaVuSans-30" transform="translate(63.623047 0.684375)"/>
       <use xlink:href="#DejaVuSans-2212" transform="translate(128.203125 38.965625) scale(0.7)"/>
       <use xlink:href="#DejaVuSans-37" transform="translate(186.855469 38.965625) scale(0.7)"/>
      </g>
     </g>
    </g>
    <g id="xtick_4">
     <g id="line2d_7">
      <path d="M 377.130665 386.728 
L 377.130665 26.88 
" clip-path="url(#p4d9897d4a6)" style="fill: none; stroke: #b0b0b0; stroke-width: 0.8; stroke-linecap: square"/>
     </g>
     <g id="line2d_8">
      <g>
       <use xlink:href="#me0740c18fa" x="377.130665" y="386.728" style="stroke: #000000; stroke-width: 0.8"/>
      </g>
     </g>
     <g id="text_4">
      <!-- $\mathdefault{10^{-6}}$ -->
      <g transform="translate(365.380665 401.326437) scale(0.1 -0.1)">
       <defs>
        <path id="DejaVuSans-36" d="M 2113 2584 
Q 1688 2584 1439 2293 
Q 1191 2003 1191 1497 
Q 1191 994 1439 701 
Q 1688 409 2113 409 
Q 2538 409 2786 701 
Q 3034 994 3034 1497 
Q 3034 2003 2786 2293 
Q 2538 2584 2113 2584 
z
M 3366 4563 
L 3366 3988 
Q 3128 4100 2886 4159 
Q 2644 4219 2406 4219 
Q 1781 4219 1451 3797 
Q 1122 3375 1075 2522 
Q 1259 2794 1537 2939 
Q 1816 3084 2150 3084 
Q 2853 3084 3261 2657 
Q 3669 2231 3669 1497 
Q 3669 778 3244 343 
Q 2819 -91 2113 -91 
Q 1303 -91 875 529 
Q 447 1150 447 2328 
Q 447 3434 972 4092 
Q 1497 4750 2381 4750 
Q 2619 4750 2861 4703 
Q 3103 4656 3366 4563 
z
" transform="scale(0.015625)"/>
       </defs>
       <use xlink:href="#DejaVuSans-31" transform="translate(0 0.765625)"/>
       <use xlink:href="#DejaVuSans-30" transform="translate(63.623047 0.765625)"/>
       <use xlink:href="#DejaVuSans-2212" transform="translate(128.203125 39.046875) scale(0.7)"/>
       <use xlink:href="#DejaVuSans-36" transform="translate(186.855469 39.046875) scale(0.7)"/>
      </g>
     </g>
    </g>
    <g id="xtick_5">
     <g id="line2d_9">
      <path d="M 478.036655 386.728 
L 478.036655 26.88 
" clip-path="url(#p4d9897d4a6)" style="fill: none; stroke: #b0b0b0; stroke-width: 0.8; stroke-linecap: square"/>
     </g>
     <g id="line2d_10">
      <g>
       <use xlink:href="#me0740c18fa" x="478.036655" y="386.728" style="stroke: #000000; stroke-width: 0.8"/>
      </g>
     </g>
     <g id="text_5">
      <!-- $\mathdefault{10^{-5}}$ -->
      <g transform="translate(466.286655 401.326437) scale(0.1 -0.1)">
       <defs>
        <path id="DejaVuSans-35" d="M 691 4666 
L 3169 4666 
L 3169 4134 
L 1269 4134 
L 1269 2991 
Q 1406 3038 1543 3061 
Q 1681 3084 1819 3084 
Q 2600 3084 3056 2656 
Q 3513 2228 3513 1497 
Q 3513 744 3044 326 
Q 2575 -91 1722 -91 
Q 1428 -91 1123 -41 
Q 819 9 494 109 
L 494 744 
Q 775 591 1075 516 
Q 1375 441 1709 441 
Q 2250 441 2565 725 
Q 2881 1009 2881 1497 
Q 2881 1984 2565 2268 
Q 2250 2553 1709 2553 
Q 1456 2553 1204 2497 
Q 953 2441 691 2322 
L 691 4666 
z
" transform="scale(0.015625)"/>
       </defs>
       <use xlink:href="#DejaVuSans-31" transform="translate(0 0.684375)"/>
       <use xlink:href="#DejaVuSans-30" transform="translate(63.623047 0.684375)"/>
       <use xlink:href="#DejaVuSans-2212" transform="translate(128.203125 38.965625) scale(0.7)"/>
       <use xlink:href="#DejaVuSans-35" transform="translate(186.855469 38.965625) scale(0.7)"/>
      </g>
     </g>
    </g>
    <g id="xtick_6">
     <g id="line2d_11">
      <path d="M 578.942646 386.728 
L 578.942646 26.88 
" clip-path="url(#p4d9897d4a6)" style="fill: none; stroke: #b0b0b0; stroke-width: 0.8; stroke-linecap: square"/>
     </g>
     <g id="line2d_12">
      <g>
       <use xlink:href="#me0740c18fa" x="578.942646" y="386.728" style="stroke: #000000; stroke-width: 0.8"/>
      </g>
     </g>
     <g id="text_6">
      <!-- $\mathdefault{10^{-4}}$ -->
      <g transform="translate(567.192646 401.326437) scale(0.1 -0.1)">
       <defs>
        <path id="DejaVuSans-34" d="M 2419 4116 
L 825 1625 
L 2419 1625 
L 2419 4116 
z
M 2253 4666 
L 3047 4666 
L 3047 1625 
L 3713 1625 
L 3713 1100 
L 3047 1100 
L 3047 0 
L 2419 0 
L 2419 1100 
L 313 1100 
L 313 1709 
L 2253 4666 
z
" transform="scale(0.015625)"/>
       </defs>
       <use xlink:href="#DejaVuSans-31" transform="translate(0 0.684375)"/>
       <use xlink:href="#DejaVuSans-30" transform="translate(63.623047 0.684375)"/>
       <use xlink:href="#DejaVuSans-2212" transform="translate(128.203125 38.965625) scale(0.7)"/>
       <use xlink:href="#DejaVuSans-34" transform="translate(186.855469 38.965625) scale(0.7)"/>
      </g>
     </g>
    </g>
    <g id="xtick_7">
     <g id="line2d_13">
      <path d="M 679.848636 386.728 
L 679.848636 26.88 
" clip-path="url(#p4d9897d4a6)" style="fill: none; stroke: #b0b0b0; stroke-width: 0.8; stroke-linecap: square"/>
     </g>
     <g id="line2d_14">
      <g>
       <use xlink:href="#me0740c18fa" x="679.848636" y="386.728" style="stroke: #000000; stroke-width: 0.8"/>
      </g>
     </g>
     <g id="text_7">
      <!-- $\mathdefault{10^{-3}}$ -->
      <g transform="translate(668.098636 401.326437) scale(0.1 -0.1)">
       <defs>
        <path id="DejaVuSans-33" d="M 2597 2516 
Q 3050 2419 3304 2112 
Q 3559 1806 3559 1356 
Q 3559 666 3084 287 
Q 2609 -91 1734 -91 
Q 1441 -91 1130 -33 
Q 819 25 488 141 
L 488 750 
Q 750 597 1062 519 
Q 1375 441 1716 441 
Q 2309 441 2620 675 
Q 2931 909 2931 1356 
Q 2931 1769 2642 2001 
Q 2353 2234 1838 2234 
L 1294 2234 
L 1294 2753 
L 1863 2753 
Q 2328 2753 2575 2939 
Q 2822 3125 2822 3475 
Q 2822 3834 2567 4026 
Q 2313 4219 1838 4219 
Q 1578 4219 1281 4162 
Q 984 4106 628 3988 
L 628 4550 
Q 988 4650 1302 4700 
Q 1616 4750 1894 4750 
Q 2613 4750 3031 4423 
Q 3450 4097 3450 3541 
Q 3450 3153 3228 2886 
Q 3006 2619 2597 2516 
z
" transform="scale(0.015625)"/>
       </defs>
       <use xlink:href="#DejaVuSans-31" transform="translate(0 0.765625)"/>
       <use xlink:href="#DejaVuSans-30" transform="translate(63.623047 0.765625)"/>
       <use xlink:href="#DejaVuSans-2212" transform="translate(128.203125 39.046875) scale(0.7)"/>
       <use xlink:href="#DejaVuSans-33" transform="translate(186.855469 39.046875) scale(0.7)"/>
      </g>
     </g>
    </g>
    <g id="xtick_8">
     <g id="line2d_15">
      <defs>
       <path id="m780d236cef" d="M 0 0 
L 0 2 
" style="stroke: #000000; stroke-width: 0.6"/>
      </defs>
      <g>
       <use xlink:href="#m780d236cef" x="64.633893" y="386.728" style="stroke: #000000; stroke-width: 0.6"/>
      </g>
     </g>
    </g>
    <g id="xtick_9">
     <g id="line2d_16">
      <g>
       <use xlink:href="#m780d236cef" x="69.795488" y="386.728" style="stroke: #000000; stroke-width: 0.6"/>
      </g>
     </g>
    </g>
    <g id="xtick_10">
     <g id="line2d_17">
      <g>
       <use xlink:href="#m780d236cef" x="104.788423" y="386.728" style="stroke: #000000; stroke-width: 0.6"/>
      </g>
     </g>
    </g>
    <g id="xtick_11">
     <g id="line2d_18">
      <g>
       <use xlink:href="#m780d236cef" x="122.557086" y="386.728" style="stroke: #000000; stroke-width: 0.6"/>
      </g>
     </g>
    </g>
    <g id="xtick_12">
     <g id="line2d_19">
      <g>
       <use xlink:href="#m780d236cef" x="135.164153" y="386.728" style="stroke: #000000; stroke-width: 0.6"/>
      </g>
     </g>
    </g>
    <g id="xtick_13">
     <g id="line2d_20">
      <g>
       <use xlink:href="#m780d236cef" x="144.942954" y="386.728" style="stroke: #000000; stroke-width: 0.6"/>
      </g>
     </g>
    </g>
    <g id="xtick_14">
     <g id="line2d_21">
      <g>
       <use xlink:href="#m780d236cef" x="152.932816" y="386.728" style="stroke: #000000; stroke-width: 0.6"/>
      </g>
     </g>
    </g>
    <g id="xtick_15">
     <g id="line2d_22">
      <g>
       <use xlink:href="#m780d236cef" x="159.688148" y="386.728" style="stroke: #000000; stroke-width: 0.6"/>
      </g>
     </g>
    </g>
    <g id="xtick_16">
     <g id="line2d_23">
      <g>
       <use xlink:href="#m780d236cef" x="165.539883" y="386.728" style="stroke: #000000; stroke-width: 0.6"/>
      </g>
     </g>
    </g>
    <g id="xtick_17">
     <g id="line2d_24">
      <g>
       <use xlink:href="#m780d236cef" x="170.701479" y="386.728" style="stroke: #000000; stroke-width: 0.6"/>
      </g>
     </g>
    </g>
    <g id="xtick_18">
     <g id="line2d_25">
      <g>
       <use xlink:href="#m780d236cef" x="205.694414" y="386.728" style="stroke: #000000; stroke-width: 0.6"/>
      </g>
     </g>
    </g>
    <g id="xtick_19">
     <g id="line2d_26">
      <g>
       <use xlink:href="#m780d236cef" x="223.463077" y="386.728" style="stroke: #000000; stroke-width: 0.6"/>
      </g>
     </g>
    </g>
    <g id="xtick_20">
     <g id="line2d_27">
      <g>
       <use xlink:href="#m780d236cef" x="236.070144" y="386.728" style="stroke: #000000; stroke-width: 0.6"/>
      </g>
     </g>
    </g>
    <g id="xtick_21">
     <g id="line2d_28">
      <g>
       <use xlink:href="#m780d236cef" x="245.848944" y="386.728" style="stroke: #000000; stroke-width: 0.6"/>
      </g>
     </g>
    </g>
    <g id="xtick_22">
     <g id="line2d_29">
      <g>
       <use xlink:href="#m780d236cef" x="253.838807" y="386.728" style="stroke: #000000; stroke-width: 0.6"/>
      </g>
     </g>
    </g>
    <g id="xtick_23">
     <g id="line2d_30">
      <g>
       <use xlink:href="#m780d236cef" x="260.594139" y="386.728" style="stroke: #000000; stroke-width: 0.6"/>
      </g>
     </g>
    </g>
    <g id="xtick_24">
     <g id="line2d_31">
      <g>
       <use xlink:href="#m780d236cef" x="266.445874" y="386.728" style="stroke: #000000; stroke-width: 0.6"/>
      </g>
     </g>
    </g>
    <g id="xtick_25">
     <g id="line2d_32">
      <g>
       <use xlink:href="#m780d236cef" x="271.607469" y="386.728" style="stroke: #000000; stroke-width: 0.6"/>
      </g>
     </g>
    </g>
    <g id="xtick_26">
     <g id="line2d_33">
      <g>
       <use xlink:href="#m780d236cef" x="306.600404" y="386.728" style="stroke: #000000; stroke-width: 0.6"/>
      </g>
     </g>
    </g>
    <g id="xtick_27">
     <g id="line2d_34">
      <g>
       <use xlink:href="#m780d236cef" x="324.369067" y="386.728" style="stroke: #000000; stroke-width: 0.6"/>
      </g>
     </g>
    </g>
    <g id="xtick_28">
     <g id="line2d_35">
      <g>
       <use xlink:href="#m780d236cef" x="336.976134" y="386.728" style="stroke: #000000; stroke-width: 0.6"/>
      </g>
     </g>
    </g>
    <g id="xtick_29">
     <g id="line2d_36">
      <g>
       <use xlink:href="#m780d236cef" x="346.754935" y="386.728" style="stroke: #000000; stroke-width: 0.6"/>
      </g>
     </g>
    </g>
    <g id="xtick_30">
     <g id="line2d_37">
      <g>
       <use xlink:href="#m780d236cef" x="354.744797" y="386.728" style="stroke: #000000; stroke-width: 0.6"/>
      </g>
     </g>
    </g>
    <g id="xtick_31">
     <g id="line2d_38">
      <g>
       <use xlink:href="#m780d236cef" x="361.500129" y="386.728" style="stroke: #000000; stroke-width: 0.6"/>
      </g>
     </g>
    </g>
    <g id="xtick_32">
     <g id="line2d_39">
      <g>
       <use xlink:href="#m780d236cef" x="367.351864" y="386.728" style="stroke: #000000; stroke-width: 0.6"/>
      </g>
     </g>
    </g>
    <g id="xtick_33">
     <g id="line2d_40">
      <g>
       <use xlink:href="#m780d236cef" x="372.51346" y="386.728" style="stroke: #000000; stroke-width: 0.6"/>
      </g>
     </g>
    </g>
    <g id="xtick_34">
     <g id="line2d_41">
      <g>
       <use xlink:href="#m780d236cef" x="407.506395" y="386.728" style="stroke: #000000; stroke-width: 0.6"/>
      </g>
     </g>
    </g>
    <g id="xtick_35">
     <g id="line2d_42">
      <g>
       <use xlink:href="#m780d236cef" x="425.275058" y="386.728" style="stroke: #000000; stroke-width: 0.6"/>
      </g>
     </g>
    </g>
    <g id="xtick_36">
     <g id="line2d_43">
      <g>
       <use xlink:href="#m780d236cef" x="437.882125" y="386.728" style="stroke: #000000; stroke-width: 0.6"/>
      </g>
     </g>
    </g>
    <g id="xtick_37">
     <g id="line2d_44">
      <g>
       <use xlink:href="#m780d236cef" x="447.660925" y="386.728" style="stroke: #000000; stroke-width: 0.6"/>
      </g>
     </g>
    </g>
    <g id="xtick_38">
     <g id="line2d_45">
      <g>
       <use xlink:href="#m780d236cef" x="455.650788" y="386.728" style="stroke: #000000; stroke-width: 0.6"/>
      </g>
     </g>
    </g>
    <g id="xtick_39">
     <g id="line2d_46">
      <g>
       <use xlink:href="#m780d236cef" x="462.40612" y="386.728" style="stroke: #000000; stroke-width: 0.6"/>
      </g>
     </g>
    </g>
    <g id="xtick_40">
     <g id="line2d_47">
      <g>
       <use xlink:href="#m780d236cef" x="468.257855" y="386.728" style="stroke: #000000; stroke-width: 0.6"/>
      </g>
     </g>
    </g>
    <g id="xtick_41">
     <g id="line2d_48">
      <g>
       <use xlink:href="#m780d236cef" x="473.41945" y="386.728" style="stroke: #000000; stroke-width: 0.6"/>
      </g>
     </g>
    </g>
    <g id="xtick_42">
     <g id="line2d_49">
      <g>
       <use xlink:href="#m780d236cef" x="508.412385" y="386.728" style="stroke: #000000; stroke-width: 0.6"/>
      </g>
     </g>
    </g>
    <g id="xtick_43">
     <g id="line2d_50">
      <g>
       <use xlink:href="#m780d236cef" x="526.181048" y="386.728" style="stroke: #000000; stroke-width: 0.6"/>
      </g>
     </g>
    </g>
    <g id="xtick_44">
     <g id="line2d_51">
      <g>
       <use xlink:href="#m780d236cef" x="538.788115" y="386.728" style="stroke: #000000; stroke-width: 0.6"/>
      </g>
     </g>
    </g>
    <g id="xtick_45">
     <g id="line2d_52">
      <g>
       <use xlink:href="#m780d236cef" x="548.566916" y="386.728" style="stroke: #000000; stroke-width: 0.6"/>
      </g>
     </g>
    </g>
    <g id="xtick_46">
     <g id="line2d_53">
      <g>
       <use xlink:href="#m780d236cef" x="556.556778" y="386.728" style="stroke: #000000; stroke-width: 0.6"/>
      </g>
     </g>
    </g>
    <g id="xtick_47">
     <g id="line2d_54">
      <g>
       <use xlink:href="#m780d236cef" x="563.31211" y="386.728" style="stroke: #000000; stroke-width: 0.6"/>
      </g>
     </g>
    </g>
    <g id="xtick_48">
     <g id="line2d_55">
      <g>
       <use xlink:href="#m780d236cef" x="569.163845" y="386.728" style="stroke: #000000; stroke-width: 0.6"/>
      </g>
     </g>
    </g>
    <g id="xtick_49">
     <g id="line2d_56">
      <g>
       <use xlink:href="#m780d236cef" x="574.325441" y="386.728" style="stroke: #000000; stroke-width: 0.6"/>
      </g>
     </g>
    </g>
    <g id="xtick_50">
     <g id="line2d_57">
      <g>
       <use xlink:href="#m780d236cef" x="609.318376" y="386.728" style="stroke: #000000; stroke-width: 0.6"/>
      </g>
     </g>
    </g>
    <g id="xtick_51">
     <g id="line2d_58">
      <g>
       <use xlink:href="#m780d236cef" x="627.087039" y="386.728" style="stroke: #000000; stroke-width: 0.6"/>
      </g>
     </g>
    </g>
    <g id="xtick_52">
     <g id="line2d_59">
      <g>
       <use xlink:href="#m780d236cef" x="639.694106" y="386.728" style="stroke: #000000; stroke-width: 0.6"/>
      </g>
     </g>
    </g>
    <g id="xtick_53">
     <g id="line2d_60">
      <g>
       <use xlink:href="#m780d236cef" x="649.472906" y="386.728" style="stroke: #000000; stroke-width: 0.6"/>
      </g>
     </g>
    </g>
    <g id="xtick_54">
     <g id="line2d_61">
      <g>
       <use xlink:href="#m780d236cef" x="657.462769" y="386.728" style="stroke: #000000; stroke-width: 0.6"/>
      </g>
     </g>
    </g>
    <g id="xtick_55">
     <g id="line2d_62">
      <g>
       <use xlink:href="#m780d236cef" x="664.218101" y="386.728" style="stroke: #000000; stroke-width: 0.6"/>
      </g>
     </g>
    </g>
    <g id="xtick_56">
     <g id="line2d_63">
      <g>
       <use xlink:href="#m780d236cef" x="670.069836" y="386.728" style="stroke: #000000; stroke-width: 0.6"/>
      </g>
     </g>
    </g>
    <g id="xtick_57">
     <g id="line2d_64">
      <g>
       <use xlink:href="#m780d236cef" x="675.231431" y="386.728" style="stroke: #000000; stroke-width: 0.6"/>
      </g>
     </g>
    </g>
    <g id="text_8">
     <!-- Time (s) [log scale] -->
     <g transform="translate(338.420156 415.004563) scale(0.1 -0.1)">
      <defs>
       <path id="DejaVuSans-54" d="M -19 4666 
L 3928 4666 
L 3928 4134 
L 2272 4134 
L 2272 0 
L 1638 0 
L 1638 4134 
L -19 4134 
L -19 4666 
z
" transform="scale(0.015625)"/>
       <path id="DejaVuSans-69" d="M 603 3500 
L 1178 3500 
L 1178 0 
L 603 0 
L 603 3500 
z
M 603 4863 
L 1178 4863 
L 1178 4134 
L 603 4134 
L 603 4863 
z
" transform="scale(0.015625)"/>
       <path id="DejaVuSans-6d" d="M 3328 2828 
Q 3544 3216 3844 3400 
Q 4144 3584 4550 3584 
Q 5097 3584 5394 3201 
Q 5691 2819 5691 2113 
L 5691 0 
L 5113 0 
L 5113 2094 
Q 5113 2597 4934 2840 
Q 4756 3084 4391 3084 
Q 3944 3084 3684 2787 
Q 3425 2491 3425 1978 
L 3425 0 
L 2847 0 
L 2847 2094 
Q 2847 2600 2669 2842 
Q 2491 3084 2119 3084 
Q 1678 3084 1418 2786 
Q 1159 2488 1159 1978 
L 1159 0 
L 581 0 
L 581 3500 
L 1159 3500 
L 1159 2956 
Q 1356 3278 1631 3431 
Q 1906 3584 2284 3584 
Q 2666 3584 2933 3390 
Q 3200 3197 3328 2828 
z
" transform="scale(0.015625)"/>
       <path id="DejaVuSans-65" d="M 3597 1894 
L 3597 1613 
L 953 1613 
Q 991 1019 1311 708 
Q 1631 397 2203 397 
Q 2534 397 2845 478 
Q 3156 559 3463 722 
L 3463 178 
Q 3153 47 2828 -22 
Q 2503 -91 2169 -91 
Q 1331 -91 842 396 
Q 353 884 353 1716 
Q 353 2575 817 3079 
Q 1281 3584 2069 3584 
Q 2775 3584 3186 3129 
Q 3597 2675 3597 1894 
z
M 3022 2063 
Q 3016 2534 2758 2815 
Q 2500 3097 2075 3097 
Q 1594 3097 1305 2825 
Q 1016 2553 972 2059 
L 3022 2063 
z
" transform="scale(0.015625)"/>
       <path id="DejaVuSans-20" transform="scale(0.015625)"/>
       <path id="DejaVuSans-28" d="M 1984 4856 
Q 1566 4138 1362 3434 
Q 1159 2731 1159 2009 
Q 1159 1288 1364 580 
Q 1569 -128 1984 -844 
L 1484 -844 
Q 1016 -109 783 600 
Q 550 1309 550 2009 
Q 550 2706 781 3412 
Q 1013 4119 1484 4856 
L 1984 4856 
z
" transform="scale(0.015625)"/>
       <path id="DejaVuSans-73" d="M 2834 3397 
L 2834 2853 
Q 2591 2978 2328 3040 
Q 2066 3103 1784 3103 
Q 1356 3103 1142 2972 
Q 928 2841 928 2578 
Q 928 2378 1081 2264 
Q 1234 2150 1697 2047 
L 1894 2003 
Q 2506 1872 2764 1633 
Q 3022 1394 3022 966 
Q 3022 478 2636 193 
Q 2250 -91 1575 -91 
Q 1294 -91 989 -36 
Q 684 19 347 128 
L 347 722 
Q 666 556 975 473 
Q 1284 391 1588 391 
Q 1994 391 2212 530 
Q 2431 669 2431 922 
Q 2431 1156 2273 1281 
Q 2116 1406 1581 1522 
L 1381 1569 
Q 847 1681 609 1914 
Q 372 2147 372 2553 
Q 372 3047 722 3315 
Q 1072 3584 1716 3584 
Q 2034 3584 2315 3537 
Q 2597 3491 2834 3397 
z
" transform="scale(0.015625)"/>
       <path id="DejaVuSans-29" d="M 513 4856 
L 1013 4856 
Q 1481 4119 1714 3412 
Q 1947 2706 1947 2009 
Q 1947 1309 1714 600 
Q 1481 -109 1013 -844 
L 513 -844 
Q 928 -128 1133 580 
Q 1338 1288 1338 2009 
Q 1338 2731 1133 3434 
Q 928 4138 513 4856 
z
" transform="scale(0.015625)"/>
       <path id="DejaVuSans-5b" d="M 550 4863 
L 1875 4863 
L 1875 4416 
L 1125 4416 
L 1125 -397 
L 1875 -397 
L 1875 -844 
L 550 -844 
L 550 4863 
z
" transform="scale(0.015625)"/>
       <path id="DejaVuSans-6c" d="M 603 4863 
L 1178 4863 
L 1178 0 
L 603 0 
L 603 4863 
z
" transform="scale(0.015625)"/>
       <path id="DejaVuSans-6f" d="M 1959 3097 
Q 1497 3097 1228 2736 
Q 959 2375 959 1747 
Q 959 1119 1226 758 
Q 1494 397 1959 397 
Q 2419 397 2687 759 
Q 2956 1122 2956 1747 
Q 2956 2369 2687 2733 
Q 2419 3097 1959 3097 
z
M 1959 3584 
Q 2709 3584 3137 3096 
Q 3566 2609 3566 1747 
Q 3566 888 3137 398 
Q 2709 -91 1959 -91 
Q 1206 -91 779 398 
Q 353 888 353 1747 
Q 353 2609 779 3096 
Q 1206 3584 1959 3584 
z
" transform="scale(0.015625)"/>
       <path id="DejaVuSans-67" d="M 2906 1791 
Q 2906 2416 2648 2759 
Q 2391 3103 1925 3103 
Q 1463 3103 1205 2759 
Q 947 2416 947 1791 
Q 947 1169 1205 825 
Q 1463 481 1925 481 
Q 2391 481 2648 825 
Q 2906 1169 2906 1791 
z
M 3481 434 
Q 3481 -459 3084 -895 
Q 2688 -1331 1869 -1331 
Q 1566 -1331 1297 -1286 
Q 1028 -1241 775 -1147 
L 775 -588 
Q 1028 -725 1275 -790 
Q 1522 -856 1778 -856 
Q 2344 -856 2625 -561 
Q 2906 -266 2906 331 
L 2906 616 
Q 2728 306 2450 153 
Q 2172 0 1784 0 
Q 1141 0 747 490 
Q 353 981 353 1791 
Q 353 2603 747 3093 
Q 1141 3584 1784 3584 
Q 2172 3584 2450 3431 
Q 2728 3278 2906 2969 
L 2906 3500 
L 3481 3500 
L 3481 434 
z
" transform="scale(0.015625)"/>
       <path id="DejaVuSans-63" d="M 3122 3366 
L 3122 2828 
Q 2878 2963 2633 3030 
Q 2388 3097 2138 3097 
Q 1578 3097 1268 2742 
Q 959 2388 959 1747 
Q 959 1106 1268 751 
Q 1578 397 2138 397 
Q 2388 397 2633 464 
Q 2878 531 3122 666 
L 3122 134 
Q 2881 22 2623 -34 
Q 2366 -91 2075 -91 
Q 1284 -91 818 406 
Q 353 903 353 1747 
Q 353 2603 823 3093 
Q 1294 3584 2113 3584 
Q 2378 3584 2631 3529 
Q 2884 3475 3122 3366 
z
" transform="scale(0.015625)"/>
       <path id="DejaVuSans-61" d="M 2194 1759 
Q 1497 1759 1228 1600 
Q 959 1441 959 1056 
Q 959 750 1161 570 
Q 1363 391 1709 391 
Q 2188 391 2477 730 
Q 2766 1069 2766 1631 
L 2766 1759 
L 2194 1759 
z
M 3341 1997 
L 3341 0 
L 2766 0 
L 2766 531 
Q 2569 213 2275 61 
Q 1981 -91 1556 -91 
Q 1019 -91 701 211 
Q 384 513 384 1019 
Q 384 1609 779 1909 
Q 1175 2209 1959 2209 
L 2766 2209 
L 2766 2266 
Q 2766 2663 2505 2880 
Q 2244 3097 1772 3097 
Q 1472 3097 1187 3025 
Q 903 2953 641 2809 
L 641 3341 
Q 956 3463 1253 3523 
Q 1550 3584 1831 3584 
Q 2591 3584 2966 3190 
Q 3341 2797 3341 1997 
z
" transform="scale(0.015625)"/>
       <path id="DejaVuSans-5d" d="M 1947 4863 
L 1947 -844 
L 622 -844 
L 622 -397 
L 1369 -397 
L 1369 4416 
L 622 4416 
L 622 4863 
L 1947 4863 
z
" transform="scale(0.015625)"/>
      </defs>
      <use xlink:href="#DejaVuSans-54"/>
      <use xlink:href="#DejaVuSans-69" transform="translate(57.958984 0)"/>
      <use xlink:href="#DejaVuSans-6d" transform="translate(85.742188 0)"/>
      <use xlink:href="#DejaVuSans-65" transform="translate(183.154297 0)"/>
      <use xlink:href="#DejaVuSans-20" transform="translate(244.677734 0)"/>
      <use xlink:href="#DejaVuSans-28" transform="translate(276.464844 0)"/>
      <use xlink:href="#DejaVuSans-73" transform="translate(315.478516 0)"/>
      <use xlink:href="#DejaVuSans-29" transform="translate(367.578125 0)"/>
      <use xlink:href="#DejaVuSans-20" transform="translate(406.591797 0)"/>
      <use xlink:href="#DejaVuSans-5b" transform="translate(438.378906 0)"/>
      <use xlink:href="#DejaVuSans-6c" transform="translate(477.392578 0)"/>
      <use xlink:href="#DejaVuSans-6f" transform="translate(505.175781 0)"/>
      <use xlink:href="#DejaVuSans-67" transform="translate(566.357422 0)"/>
      <use xlink:href="#DejaVuSans-20" transform="translate(629.833984 0)"/>
      <use xlink:href="#DejaVuSans-73" transform="translate(661.621094 0)"/>
      <use xlink:href="#DejaVuSans-63" transform="translate(713.720703 0)"/>
      <use xlink:href="#DejaVuSans-61" transform="translate(768.701172 0)"/>
      <use xlink:href="#DejaVuSans-6c" transform="translate(829.980469 0)"/>
      <use xlink:href="#DejaVuSans-65" transform="translate(857.763672 0)"/>
      <use xlink:href="#DejaVuSans-5d" transform="translate(919.287109 0)"/>
     </g>
    </g>
   </g>
   <g id="matplotlib.axis_2">
    <g id="ytick_1">
     <g id="line2d_65">
      <path d="M 63.47 364.799479 
L 709.2 364.799479 
" clip-path="url(#p4d9897d4a6)" style="fill: none; stroke: #b0b0b0; stroke-width: 0.8; stroke-linecap: square"/>
     </g>
     <g id="line2d_66">
      <defs>
       <path id="mc491a214a3" d="M 0 0 
L -3.5 0 
" style="stroke: #000000; stroke-width: 0.8"/>
      </defs>
      <g>
       <use xlink:href="#mc491a214a3" x="63.47" y="364.799479" style="stroke: #000000; stroke-width: 0.8"/>
      </g>
     </g>
     <g id="text_9">
      <!-- 5000 -->
      <g transform="translate(31.02 368.598698) scale(0.1 -0.1)">
       <use xlink:href="#DejaVuSans-35"/>
       <use xlink:href="#DejaVuSans-30" transform="translate(63.623047 0)"/>
       <use xlink:href="#DejaVuSans-30" transform="translate(127.246094 0)"/>
       <use xlink:href="#DejaVuSans-30" transform="translate(190.869141 0)"/>
      </g>
     </g>
    </g>
    <g id="ytick_2">
     <g id="line2d_67">
      <path d="M 63.47 300.711679 
L 709.2 300.711679 
" clip-path="url(#p4d9897d4a6)" style="fill: none; stroke: #b0b0b0; stroke-width: 0.8; stroke-linecap: square"/>
     </g>
     <g id="line2d_68">
      <g>
       <use xlink:href="#mc491a214a3" x="63.47" y="300.711679" style="stroke: #000000; stroke-width: 0.8"/>
      </g>
     </g>
     <g id="text_10">
      <!-- 6000 -->
      <g transform="translate(31.02 304.510898) scale(0.1 -0.1)">
       <use xlink:href="#DejaVuSans-36"/>
       <use xlink:href="#DejaVuSans-30" transform="translate(63.623047 0)"/>
       <use xlink:href="#DejaVuSans-30" transform="translate(127.246094 0)"/>
       <use xlink:href="#DejaVuSans-30" transform="translate(190.869141 0)"/>
      </g>
     </g>
    </g>
    <g id="ytick_3">
     <g id="line2d_69">
      <path d="M 63.47 236.623879 
L 709.2 236.623879 
" clip-path="url(#p4d9897d4a6)" style="fill: none; stroke: #b0b0b0; stroke-width: 0.8; stroke-linecap: square"/>
     </g>
     <g id="line2d_70">
      <g>
       <use xlink:href="#mc491a214a3" x="63.47" y="236.623879" style="stroke: #000000; stroke-width: 0.8"/>
      </g>
     </g>
     <g id="text_11">
      <!-- 7000 -->
      <g transform="translate(31.02 240.423098) scale(0.1 -0.1)">
       <use xlink:href="#DejaVuSans-37"/>
       <use xlink:href="#DejaVuSans-30" transform="translate(63.623047 0)"/>
       <use xlink:href="#DejaVuSans-30" transform="translate(127.246094 0)"/>
       <use xlink:href="#DejaVuSans-30" transform="translate(190.869141 0)"/>
      </g>
     </g>
    </g>
    <g id="ytick_4">
     <g id="line2d_71">
      <path d="M 63.47 172.536079 
L 709.2 172.536079 
" clip-path="url(#p4d9897d4a6)" style="fill: none; stroke: #b0b0b0; stroke-width: 0.8; stroke-linecap: square"/>
     </g>
     <g id="line2d_72">
      <g>
       <use xlink:href="#mc491a214a3" x="63.47" y="172.536079" style="stroke: #000000; stroke-width: 0.8"/>
      </g>
     </g>
     <g id="text_12">
      <!-- 8000 -->
      <g transform="translate(31.02 176.335297) scale(0.1 -0.1)">
       <use xlink:href="#DejaVuSans-38"/>
       <use xlink:href="#DejaVuSans-30" transform="translate(63.623047 0)"/>
       <use xlink:href="#DejaVuSans-30" transform="translate(127.246094 0)"/>
       <use xlink:href="#DejaVuSans-30" transform="translate(190.869141 0)"/>
      </g>
     </g>
    </g>
    <g id="ytick_5">
     <g id="line2d_73">
      <path d="M 63.47 108.448278 
L 709.2 108.448278 
" clip-path="url(#p4d9897d4a6)" style="fill: none; stroke: #b0b0b0; stroke-width: 0.8; stroke-linecap: square"/>
     </g>
     <g id="line2d_74">
      <g>
       <use xlink:href="#mc491a214a3" x="63.47" y="108.448278" style="stroke: #000000; stroke-width: 0.8"/>
      </g>
     </g>
     <g id="text_13">
      <!-- 9000 -->
      <g transform="translate(31.02 112.247497) scale(0.1 -0.1)">
       <use xlink:href="#DejaVuSans-39"/>
       <use xlink:href="#DejaVuSans-30" transform="translate(63.623047 0)"/>
       <use xlink:href="#DejaVuSans-30" transform="translate(127.246094 0)"/>
       <use xlink:href="#DejaVuSans-30" transform="translate(190.869141 0)"/>
      </g>
     </g>
    </g>
    <g id="ytick_6">
     <g id="line2d_75">
      <path d="M 63.47 44.360478 
L 709.2 44.360478 
" clip-path="url(#p4d9897d4a6)" style="fill: none; stroke: #b0b0b0; stroke-width: 0.8; stroke-linecap: square"/>
     </g>
     <g id="line2d_76">
      <g>
       <use xlink:href="#mc491a214a3" x="63.47" y="44.360478" style="stroke: #000000; stroke-width: 0.8"/>
      </g>
     </g>
     <g id="text_14">
      <!-- 10000 -->
      <g transform="translate(24.6575 48.159697) scale(0.1 -0.1)">
       <use xlink:href="#DejaVuSans-31"/>
       <use xlink:href="#DejaVuSans-30" transform="translate(63.623047 0)"/>
       <use xlink:href="#DejaVuSans-30" transform="translate(127.246094 0)"/>
       <use xlink:href="#DejaVuSans-30" transform="translate(190.869141 0)"/>
       <use xlink:href="#DejaVuSans-30" transform="translate(254.492188 0)"/>
      </g>
     </g>
    </g>
    <g id="text_15">
     <!-- Temperature (K) -->
     <g transform="translate(18.577813 247.243063) rotate(-90) scale(0.1 -0.1)">
      <defs>
       <path id="DejaVuSans-70" d="M 1159 525 
L 1159 -1331 
L 581 -1331 
L 581 3500 
L 1159 3500 
L 1159 2969 
Q 1341 3281 1617 3432 
Q 1894 3584 2278 3584 
Q 2916 3584 3314 3078 
Q 3713 2572 3713 1747 
Q 3713 922 3314 415 
Q 2916 -91 2278 -91 
Q 1894 -91 1617 61 
Q 1341 213 1159 525 
z
M 3116 1747 
Q 3116 2381 2855 2742 
Q 2594 3103 2138 3103 
Q 1681 3103 1420 2742 
Q 1159 2381 1159 1747 
Q 1159 1113 1420 752 
Q 1681 391 2138 391 
Q 2594 391 2855 752 
Q 3116 1113 3116 1747 
z
" transform="scale(0.015625)"/>
       <path id="DejaVuSans-72" d="M 2631 2963 
Q 2534 3019 2420 3045 
Q 2306 3072 2169 3072 
Q 1681 3072 1420 2755 
Q 1159 2438 1159 1844 
L 1159 0 
L 581 0 
L 581 3500 
L 1159 3500 
L 1159 2956 
Q 1341 3275 1631 3429 
Q 1922 3584 2338 3584 
Q 2397 3584 2469 3576 
Q 2541 3569 2628 3553 
L 2631 2963 
z
" transform="scale(0.015625)"/>
       <path id="DejaVuSans-74" d="M 1172 4494 
L 1172 3500 
L 2356 3500 
L 2356 3053 
L 1172 3053 
L 1172 1153 
Q 1172 725 1289 603 
Q 1406 481 1766 481 
L 2356 481 
L 2356 0 
L 1766 0 
Q 1100 0 847 248 
Q 594 497 594 1153 
L 594 3053 
L 172 3053 
L 172 3500 
L 594 3500 
L 594 4494 
L 1172 4494 
z
" transform="scale(0.015625)"/>
       <path id="DejaVuSans-75" d="M 544 1381 
L 544 3500 
L 1119 3500 
L 1119 1403 
Q 1119 906 1312 657 
Q 1506 409 1894 409 
Q 2359 409 2629 706 
Q 2900 1003 2900 1516 
L 2900 3500 
L 3475 3500 
L 3475 0 
L 2900 0 
L 2900 538 
Q 2691 219 2414 64 
Q 2138 -91 1772 -91 
Q 1169 -91 856 284 
Q 544 659 544 1381 
z
M 1991 3584 
L 1991 3584 
z
" transform="scale(0.015625)"/>
       <path id="DejaVuSans-4b" d="M 628 4666 
L 1259 4666 
L 1259 2694 
L 3353 4666 
L 4166 4666 
L 1850 2491 
L 4331 0 
L 3500 0 
L 1259 2247 
L 1259 0 
L 628 0 
L 628 4666 
z
" transform="scale(0.015625)"/>
      </defs>
      <use xlink:href="#DejaVuSans-54"/>
      <use xlink:href="#DejaVuSans-65" transform="translate(44.083984 0)"/>
      <use xlink:href="#DejaVuSans-6d" transform="translate(105.607422 0)"/>
      <use xlink:href="#DejaVuSans-70" transform="translate(203.019531 0)"/>
      <use xlink:href="#DejaVuSans-65" transform="translate(266.496094 0)"/>
      <use xlink:href="#DejaVuSans-72" transform="translate(328.019531 0)"/>
      <use xlink:href="#DejaVuSans-61" transform="translate(369.132812 0)"/>
      <use xlink:href="#DejaVuSans-74" transform="translate(430.412109 0)"/>
      <use xlink:href="#DejaVuSans-75" transform="translate(469.621094 0)"/>
      <use xlink:href="#DejaVuSans-72" transform="translate(533 0)"/>
      <use xlink:href="#DejaVuSans-65" transform="translate(571.863281 0)"/>
      <use xlink:href="#DejaVuSans-20" transform="translate(633.386719 0)"/>
      <use xlink:href="#DejaVuSans-28" transform="translate(665.173828 0)"/>
      <use xlink:href="#DejaVuSans-4b" transform="translate(704.1875 0)"/>
      <use xlink:href="#DejaVuSans-29" transform="translate(769.763672 0)"/>
     </g>
    </g>
   </g>
   <g id="line2d_77">
    <path d="M -1 45.533269 
L 175.318684 45.535208 
L 205.694414 46.654822 
L 223.463077 47.775076 
L 236.070144 48.896613 
L 245.848944 50.018149 
L 253.838807 51.140327 
L 260.594139 52.262504 
L 266.445874 53.384681 
L 271.607469 54.506859 
L 276.224674 55.629036 
L 306.600404 66.808512 
L 324.369067 77.835459 
L 336.976134 88.614386 
L 346.754935 99.074156 
L 354.744797 109.160935 
L 361.500129 118.838193 
L 367.351864 128.081576 
L 372.51346 136.877627 
L 377.130665 145.223781 
L 407.506395 206.431475 
L 425.275058 239.473223 
L 437.882125 257.942686 
L 447.660925 268.849148 
L 455.650788 275.61746 
L 462.40612 280.014524 
L 468.257855 283.006143 
L 473.41945 285.146675 
L 478.036655 286.764251 
L 486.026517 289.15024 
L 501.290332 293.405029 
L 508.412385 295.616699 
L 516.402247 298.367347 
L 524.695383 301.496114 
L 534.17091 305.324078 
L 548.566916 311.42011 
L 585.446843 327.124184 
L 601.93778 333.862376 
L 618.0326 340.167333 
L 630.863597 344.958537 
L 642.863408 349.208199 
L 655.749845 353.471961 
L 667.764314 357.110866 
L 679.848636 360.385112 
L 679.848636 360.385112 
" clip-path="url(#p4d9897d4a6)" style="fill: none; stroke: #0000ff; stroke-width: 1.5; stroke-linecap: square"/>
   </g>
   <g id="line2d_78">
    <path d="M -1 45.526872 
L 175.318684 45.528799 
L 205.694414 46.640081 
L 223.463077 47.750082 
L 236.070144 48.858801 
L 245.848944 49.965597 
L 253.838807 51.071112 
L 260.594139 52.174704 
L 266.445874 53.276373 
L 271.607469 54.376761 
L 276.224674 55.475225 
L 306.600404 66.341953 
L 324.369067 76.958738 
L 336.976134 87.282001 
L 346.754935 97.279057 
L 354.744797 106.927475 
L 361.500129 116.212515 
L 367.351864 125.12841 
L 372.51346 133.672596 
L 377.130665 141.848276 
L 407.506395 205.657936 
L 425.275058 245.855086 
L 437.882125 272.394485 
L 447.660925 290.868434 
L 455.650788 304.299314 
L 462.40612 314.402115 
L 468.257855 322.20865 
L 473.41945 328.375178 
L 478.036655 333.336856 
L 482.213425 337.392332 
L 486.026517 340.755659 
L 489.534222 343.580009 
L 492.78185 345.980738 
L 495.805318 348.044365 
L 501.290332 351.405129 
L 506.164564 354.031447 
L 510.550512 356.149549 
L 516.402247 358.674608 
L 521.563843 360.664535 
L 527.617994 362.758924 
L 534.17091 364.762308 
L 539.870217 366.284394 
L 545.855355 367.652027 
L 551.120429 368.644747 
L 556.556778 369.447127 
L 562.041792 370.012381 
L 567.48888 370.316798 
L 572.333147 370.362941 
L 577.153707 370.192468 
L 581.907645 369.809864 
L 586.565787 369.23051 
L 591.768281 368.351225 
L 597.291753 367.173932 
L 603.215506 365.680046 
L 611.664688 363.303029 
L 620.984169 360.733749 
L 626.350502 359.489164 
L 631.13081 358.626542 
L 635.440578 358.089487 
L 639.584411 357.803014 
L 643.771165 357.742131 
L 647.683968 357.875433 
L 652.437906 358.25227 
L 658.115231 358.941214 
L 666.176993 360.201821 
L 679.848636 362.583964 
L 679.848636 362.583964 
" clip-path="url(#p4d9897d4a6)" style="fill: none; stroke: #ff0000; stroke-width: 1.5; stroke-linecap: square"/>
   </g>
   <g id="line2d_79">
    <path d="M 92.821364 44.433194 
L 99.30526 44.510923 
L 105.788904 44.732749 
L 112.273341 44.501697 
L 118.756985 44.723524 
L 125.240737 44.883594 
L 131.724778 44.878981 
L 137.703007 45.195271 
L 144.692318 45.178536 
L 151.681333 45.330895 
L 157.660003 45.39575 
L 164.522903 45.434979 
L 170.627788 45.555324 
L 176.883666 46.378721 
L 183.595127 45.970157 
L 190.077048 47.176993 
L 196.560851 47.308244 
L 202.778529 47.93579 
L 208.267175 49.726681 
L 216.005022 51.838622 
L 222.48737 52.801521 
L 228.969033 54.155542 
L 235.867759 54.952494 
L 242.059143 56.595002 
L 248.412494 59.092482 
L 254.891942 61.712502 
L 261.372644 63.616445 
L 268.008243 64.876431 
L 274.32901 70.303342 
L 280.807036 73.736483 
L 287.283838 77.869526 
L 293.760913 81.846709 
L 300.789278 86.581239 
L 306.299477 91.495357 
L 311.714151 96.259548 
L 317.304928 101.44353 
L 322.3069 106.254938 
L 327.440555 110.669983 
L 332.611029 112.757717 
L 336.491124 118.659344 
L 340.546185 125.630768 
L 345.81055 130.206115 
L 349.37038 135.729314 
L 354.075895 141.528456 
L 359.472759 145.241984 
L 362.31083 151.514201 
L 366.428158 156.587271 
L 370.251744 161.095801 
L 374.368416 166.543573 
L 378.19215 170.967189 
L 382.308834 176.408222 
L 386.720355 181.787044 
L 391.132138 187.016255 
L 395.837306 193.013531 
L 404.782563 201.300104 
L 408.191185 207.14835 
L 412.603314 212.179696 
L 415.840262 215.077066 
L 429.964778 227.917409 
L 438.203576 235.695375 
L 446.540332 243.635552 
L 455.074457 251.071764 
L 464.296097 258.613157 
L 473.592213 265.70162 
L 483.01166 272.488078 
L 493.536737 279.04731 
L 503.804868 285.068934 
L 514.480938 290.958178 
L 525.97875 296.286845 
L 537.333905 301.237329 
L 549.036077 306.029503 
L 560.679514 310.700951 
L 572.322951 315.372399 
L 584.224194 320.008145 
L 595.727434 324.876954 
L 607.212928 329.979827 
L 618.517481 334.836482 
L 630.322893 339.363824 
L 642.852535 342.881692 
L 655.067673 346.471489 
L 666.848492 351.233415 
L 678.184198 354.894619 
" clip-path="url(#p4d9897d4a6)" style="fill: none; stroke: #008000; stroke-width: 1.5; stroke-linecap: square"/>
   </g>
   <g id="line2d_80">
    <defs>
     <path id="me06f855916" d="M -3 0 
L 3 0 
M 0 3 
L 0 -3 
" style="stroke: #000000"/>
    </defs>
    <g clip-path="url(#p4d9897d4a6)">
     <use xlink:href="#me06f855916" x="136.865598" y="43.236727" style="stroke: #000000"/>
     <use xlink:href="#me06f855916" x="154.548553" y="43.677025" style="stroke: #000000"/>
     <use xlink:href="#me06f855916" x="166.926383" y="44.121097" style="stroke: #000000"/>
     <use xlink:href="#me06f855916" x="207.003203" y="47.715605" style="stroke: #000000"/>
     <use xlink:href="#me06f855916" x="237.646315" y="52.675455" style="stroke: #000000"/>
     <use xlink:href="#me06f855916" x="267.692839" y="61.711625" style="stroke: #000000"/>
     <use xlink:href="#me06f855916" x="308.329803" y="82.062191" style="stroke: #000000"/>
     <use xlink:href="#me06f855916" x="338.34622" y="108.307717" style="stroke: #000000"/>
     <use xlink:href="#me06f855916" x="355.997483" y="126.863126" style="stroke: #000000"/>
     <use xlink:href="#me06f855916" x="368.939418" y="141.798867" style="stroke: #000000"/>
     <use xlink:href="#me06f855916" x="408.939387" y="189.32252" style="stroke: #000000"/>
     <use xlink:href="#me06f855916" x="438.945504" y="221.455456" style="stroke: #000000"/>
     <use xlink:href="#me06f855916" x="456.600728" y="237.746477" style="stroke: #000000"/>
     <use xlink:href="#me06f855916" x="469.550587" y="248.15344" style="stroke: #000000"/>
     <use xlink:href="#me06f855916" x="509.592547" y="271.67457" style="stroke: #000000"/>
     <use xlink:href="#me06f855916" x="539.634316" y="283.428007" style="stroke: #000000"/>
     <use xlink:href="#me06f855916" x="557.306179" y="290.208594" style="stroke: #000000"/>
     <use xlink:href="#me06f855916" x="570.265544" y="295.181024" style="stroke: #000000"/>
     <use xlink:href="#me06f855916" x="610.319388" y="311.908987" style="stroke: #000000"/>
     <use xlink:href="#me06f855916" x="640.360366" y="324.115301" style="stroke: #000000"/>
     <use xlink:href="#me06f855916" x="658.621686" y="330.895469" style="stroke: #000000"/>
    </g>
   </g>
   <g id="patch_3">
    <path d="M 63.47 386.728 
L 63.47 26.88 
" style="fill: none; stroke: #000000; stroke-width: 0.8; stroke-linejoin: miter; stroke-linecap: square"/>
   </g>
   <g id="patch_4">
    <path d="M 709.2 386.728 
L 709.2 26.88 
" style="fill: none; stroke: #000000; stroke-width: 0.8; stroke-linejoin: miter; stroke-linecap: square"/>
   </g>
   <g id="patch_5">
    <path d="M 63.47 386.728 
L 709.2 386.728 
" style="fill: none; stroke: #000000; stroke-width: 0.8; stroke-linejoin: miter; stroke-linecap: square"/>
   </g>
   <g id="patch_6">
    <path d="M 63.47 26.88 
L 709.2 26.88 
" style="fill: none; stroke: #000000; stroke-width: 0.8; stroke-linejoin: miter; stroke-linecap: square"/>
   </g>
   <g id="text_16">
    <!-- Temperature vs Time -->
    <g transform="translate(323.160625 20.88) scale(0.12 -0.12)">
     <defs>
      <path id="DejaVuSans-76" d="M 191 3500 
L 800 3500 
L 1894 563 
L 2988 3500 
L 3597 3500 
L 2284 0 
L 1503 0 
L 191 3500 
z
" transform="scale(0.015625)"/>
     </defs>
     <use xlink:href="#DejaVuSans-54"/>
     <use xlink:href="#DejaVuSans-65" transform="translate(44.083984 0)"/>
     <use xlink:href="#DejaVuSans-6d" transform="translate(105.607422 0)"/>
     <use xlink:href="#DejaVuSans-70" transform="translate(203.019531 0)"/>
     <use xlink:href="#DejaVuSans-65" transform="translate(266.496094 0)"/>
     <use xlink:href="#DejaVuSans-72" transform="translate(328.019531 0)"/>
     <use xlink:href="#DejaVuSans-61" transform="translate(369.132812 0)"/>
     <use xlink:href="#DejaVuSans-74" transform="translate(430.412109 0)"/>
     <use xlink:href="#DejaVuSans-75" transform="translate(469.621094 0)"/>
     <use xlink:href="#DejaVuSans-72" transform="translate(533 0)"/>
     <use xlink:href="#DejaVuSans-65" transform="translate(571.863281 0)"/>
     <use xlink:href="#DejaVuSans-20" transform="translate(633.386719 0)"/>
     <use xlink:href="#DejaVuSans-76" transform="translate(665.173828 0)"/>
     <use xlink:href="#DejaVuSans-73" transform="translate(724.353516 0)"/>
     <use xlink:href="#DejaVuSans-20" transform="translate(776.453125 0)"/>
     <use xlink:href="#DejaVuSans-54" transform="translate(808.240234 0)"/>
     <use xlink:href="#DejaVuSans-69" transform="translate(866.199219 0)"/>
     <use xlink:href="#DejaVuSans-6d" transform="translate(893.982422 0)"/>
     <use xlink:href="#DejaVuSans-65" transform="translate(991.394531 0)"/>
    </g>
   </g>
   <g id="legend_1">
    <g id="patch_7">
     <path d="M 576.0375 93.5925 
L 702.2 93.5925 
Q 704.2 93.5925 704.2 91.5925 
L 704.2 33.88 
Q 704.2 31.88 702.2 31.88 
L 576.0375 31.88 
Q 574.0375 31.88 574.0375 33.88 
L 574.0375 91.5925 
Q 574.0375 93.5925 576.0375 93.5925 
z
" style="fill: #ffffff; opacity: 0.8; stroke: #cccccc; stroke-linejoin: miter"/>
    </g>
    <g id="line2d_81">
     <path d="M 578.0375 39.978438 
L 588.0375 39.978438 
L 598.0375 39.978438 
" style="fill: none; stroke: #0000ff; stroke-width: 1.5; stroke-linecap: square"/>
    </g>
    <g id="text_17">
     <!-- SU2-Mutation++ -->
     <g transform="translate(606.0375 43.478438) scale(0.1 -0.1)">
      <defs>
       <path id="DejaVuSans-53" d="M 3425 4513 
L 3425 3897 
Q 3066 4069 2747 4153 
Q 2428 4238 2131 4238 
Q 1616 4238 1336 4038 
Q 1056 3838 1056 3469 
Q 1056 3159 1242 3001 
Q 1428 2844 1947 2747 
L 2328 2669 
Q 3034 2534 3370 2195 
Q 3706 1856 3706 1288 
Q 3706 609 3251 259 
Q 2797 -91 1919 -91 
Q 1588 -91 1214 -16 
Q 841 59 441 206 
L 441 856 
Q 825 641 1194 531 
Q 1563 422 1919 422 
Q 2459 422 2753 634 
Q 3047 847 3047 1241 
Q 3047 1584 2836 1778 
Q 2625 1972 2144 2069 
L 1759 2144 
Q 1053 2284 737 2584 
Q 422 2884 422 3419 
Q 422 4038 858 4394 
Q 1294 4750 2059 4750 
Q 2388 4750 2728 4690 
Q 3069 4631 3425 4513 
z
" transform="scale(0.015625)"/>
       <path id="DejaVuSans-55" d="M 556 4666 
L 1191 4666 
L 1191 1831 
Q 1191 1081 1462 751 
Q 1734 422 2344 422 
Q 2950 422 3222 751 
Q 3494 1081 3494 1831 
L 3494 4666 
L 4128 4666 
L 4128 1753 
Q 4128 841 3676 375 
Q 3225 -91 2344 -91 
Q 1459 -91 1007 375 
Q 556 841 556 1753 
L 556 4666 
z
" transform="scale(0.015625)"/>
       <path id="DejaVuSans-32" d="M 1228 531 
L 3431 531 
L 3431 0 
L 469 0 
L 469 531 
Q 828 903 1448 1529 
Q 2069 2156 2228 2338 
Q 2531 2678 2651 2914 
Q 2772 3150 2772 3378 
Q 2772 3750 2511 3984 
Q 2250 4219 1831 4219 
Q 1534 4219 1204 4116 
Q 875 4013 500 3803 
L 500 4441 
Q 881 4594 1212 4672 
Q 1544 4750 1819 4750 
Q 2544 4750 2975 4387 
Q 3406 4025 3406 3419 
Q 3406 3131 3298 2873 
Q 3191 2616 2906 2266 
Q 2828 2175 2409 1742 
Q 1991 1309 1228 531 
z
" transform="scale(0.015625)"/>
       <path id="DejaVuSans-2d" d="M 313 2009 
L 1997 2009 
L 1997 1497 
L 313 1497 
L 313 2009 
z
" transform="scale(0.015625)"/>
       <path id="DejaVuSans-4d" d="M 628 4666 
L 1569 4666 
L 2759 1491 
L 3956 4666 
L 4897 4666 
L 4897 0 
L 4281 0 
L 4281 4097 
L 3078 897 
L 2444 897 
L 1241 4097 
L 1241 0 
L 628 0 
L 628 4666 
z
" transform="scale(0.015625)"/>
       <path id="DejaVuSans-6e" d="M 3513 2113 
L 3513 0 
L 2938 0 
L 2938 2094 
Q 2938 2591 2744 2837 
Q 2550 3084 2163 3084 
Q 1697 3084 1428 2787 
Q 1159 2491 1159 1978 
L 1159 0 
L 581 0 
L 581 3500 
L 1159 3500 
L 1159 2956 
Q 1366 3272 1645 3428 
Q 1925 3584 2291 3584 
Q 2894 3584 3203 3211 
Q 3513 2838 3513 2113 
z
" transform="scale(0.015625)"/>
       <path id="DejaVuSans-2b" d="M 2944 4013 
L 2944 2272 
L 4684 2272 
L 4684 1741 
L 2944 1741 
L 2944 0 
L 2419 0 
L 2419 1741 
L 678 1741 
L 678 2272 
L 2419 2272 
L 2419 4013 
L 2944 4013 
z
" transform="scale(0.015625)"/>
      </defs>
      <use xlink:href="#DejaVuSans-53"/>
      <use xlink:href="#DejaVuSans-55" transform="translate(63.476562 0)"/>
      <use xlink:href="#DejaVuSans-32" transform="translate(136.669922 0)"/>
      <use xlink:href="#DejaVuSans-2d" transform="translate(200.292969 0)"/>
      <use xlink:href="#DejaVuSans-4d" transform="translate(236.376953 0)"/>
      <use xlink:href="#DejaVuSans-75" transform="translate(322.65625 0)"/>
      <use xlink:href="#DejaVuSans-74" transform="translate(386.035156 0)"/>
      <use xlink:href="#DejaVuSans-61" transform="translate(425.244141 0)"/>
      <use xlink:href="#DejaVuSans-74" transform="translate(486.523438 0)"/>
      <use xlink:href="#DejaVuSans-69" transform="translate(525.732422 0)"/>
      <use xlink:href="#DejaVuSans-6f" transform="translate(553.515625 0)"/>
      <use xlink:href="#DejaVuSans-6e" transform="translate(614.697266 0)"/>
      <use xlink:href="#DejaVuSans-2b" transform="translate(678.076172 0)"/>
      <use xlink:href="#DejaVuSans-2b" transform="translate(761.865234 0)"/>
     </g>
    </g>
    <g id="line2d_82">
     <path d="M 578.0375 54.656563 
L 588.0375 54.656563 
L 598.0375 54.656563 
" style="fill: none; stroke: #ff0000; stroke-width: 1.5; stroke-linecap: square"/>
    </g>
    <g id="text_18">
     <!-- SU2-Native Library -->
     <g transform="translate(606.0375 58.156563) scale(0.1 -0.1)">
      <defs>
       <path id="DejaVuSans-4e" d="M 628 4666 
L 1478 4666 
L 3547 763 
L 3547 4666 
L 4159 4666 
L 4159 0 
L 3309 0 
L 1241 3903 
L 1241 0 
L 628 0 
L 628 4666 
z
" transform="scale(0.015625)"/>
       <path id="DejaVuSans-4c" d="M 628 4666 
L 1259 4666 
L 1259 531 
L 3531 531 
L 3531 0 
L 628 0 
L 628 4666 
z
" transform="scale(0.015625)"/>
       <path id="DejaVuSans-62" d="M 3116 1747 
Q 3116 2381 2855 2742 
Q 2594 3103 2138 3103 
Q 1681 3103 1420 2742 
Q 1159 2381 1159 1747 
Q 1159 1113 1420 752 
Q 1681 391 2138 391 
Q 2594 391 2855 752 
Q 3116 1113 3116 1747 
z
M 1159 2969 
Q 1341 3281 1617 3432 
Q 1894 3584 2278 3584 
Q 2916 3584 3314 3078 
Q 3713 2572 3713 1747 
Q 3713 922 3314 415 
Q 2916 -91 2278 -91 
Q 1894 -91 1617 61 
Q 1341 213 1159 525 
L 1159 0 
L 581 0 
L 581 4863 
L 1159 4863 
L 1159 2969 
z
" transform="scale(0.015625)"/>
       <path id="DejaVuSans-79" d="M 2059 -325 
Q 1816 -950 1584 -1140 
Q 1353 -1331 966 -1331 
L 506 -1331 
L 506 -850 
L 844 -850 
Q 1081 -850 1212 -737 
Q 1344 -625 1503 -206 
L 1606 56 
L 191 3500 
L 800 3500 
L 1894 763 
L 2988 3500 
L 3597 3500 
L 2059 -325 
z
" transform="scale(0.015625)"/>
      </defs>
      <use xlink:href="#DejaVuSans-53"/>
      <use xlink:href="#DejaVuSans-55" transform="translate(63.476562 0)"/>
      <use xlink:href="#DejaVuSans-32" transform="translate(136.669922 0)"/>
      <use xlink:href="#DejaVuSans-2d" transform="translate(200.292969 0)"/>
      <use xlink:href="#DejaVuSans-4e" transform="translate(236.376953 0)"/>
      <use xlink:href="#DejaVuSans-61" transform="translate(311.181641 0)"/>
      <use xlink:href="#DejaVuSans-74" transform="translate(372.460938 0)"/>
      <use xlink:href="#DejaVuSans-69" transform="translate(411.669922 0)"/>
      <use xlink:href="#DejaVuSans-76" transform="translate(439.453125 0)"/>
      <use xlink:href="#DejaVuSans-65" transform="translate(498.632812 0)"/>
      <use xlink:href="#DejaVuSans-20" transform="translate(560.15625 0)"/>
      <use xlink:href="#DejaVuSans-4c" transform="translate(591.943359 0)"/>
      <use xlink:href="#DejaVuSans-69" transform="translate(647.65625 0)"/>
      <use xlink:href="#DejaVuSans-62" transform="translate(675.439453 0)"/>
      <use xlink:href="#DejaVuSans-72" transform="translate(738.916016 0)"/>
      <use xlink:href="#DejaVuSans-61" transform="translate(780.029297 0)"/>
      <use xlink:href="#DejaVuSans-72" transform="translate(841.308594 0)"/>
      <use xlink:href="#DejaVuSans-79" transform="translate(882.421875 0)"/>
     </g>
    </g>
    <g id="line2d_83">
     <path d="M 578.0375 69.334688 
L 588.0375 69.334688 
L 598.0375 69.334688 
" style="fill: none; stroke: #008000; stroke-width: 1.5; stroke-linecap: square"/>
    </g>
    <g id="text_19">
     <!-- LeMANS -->
     <g transform="translate(606.0375 72.834688) scale(0.1 -0.1)">
      <defs>
       <path id="DejaVuSans-41" d="M 2188 4044 
L 1331 1722 
L 3047 1722 
L 2188 4044 
z
M 1831 4666 
L 2547 4666 
L 4325 0 
L 3669 0 
L 3244 1197 
L 1141 1197 
L 716 0 
L 50 0 
L 1831 4666 
z
" transform="scale(0.015625)"/>
      </defs>
      <use xlink:href="#DejaVuSans-4c"/>
      <use xlink:href="#DejaVuSans-65" transform="translate(53.962891 0)"/>
      <use xlink:href="#DejaVuSans-4d" transform="translate(115.486328 0)"/>
      <use xlink:href="#DejaVuSans-41" transform="translate(201.765625 0)"/>
      <use xlink:href="#DejaVuSans-4e" transform="translate(270.173828 0)"/>
      <use xlink:href="#DejaVuSans-53" transform="translate(344.978516 0)"/>
     </g>
    </g>
    <g id="line2d_84">
     <g>
      <use xlink:href="#me06f855916" x="588.0375" y="84.012813" style="stroke: #000000"/>
     </g>
    </g>
    <g id="text_20">
     <!-- dsmcFoam -->
     <g transform="translate(606.0375 87.512813) scale(0.1 -0.1)">
      <defs>
       <path id="DejaVuSans-64" d="M 2906 2969 
L 2906 4863 
L 3481 4863 
L 3481 0 
L 2906 0 
L 2906 525 
Q 2725 213 2448 61 
Q 2172 -91 1784 -91 
Q 1150 -91 751 415 
Q 353 922 353 1747 
Q 353 2572 751 3078 
Q 1150 3584 1784 3584 
Q 2172 3584 2448 3432 
Q 2725 3281 2906 2969 
z
M 947 1747 
Q 947 1113 1208 752 
Q 1469 391 1925 391 
Q 2381 391 2643 752 
Q 2906 1113 2906 1747 
Q 2906 2381 2643 2742 
Q 2381 3103 1925 3103 
Q 1469 3103 1208 2742 
Q 947 2381 947 1747 
z
" transform="scale(0.015625)"/>
       <path id="DejaVuSans-46" d="M 628 4666 
L 3309 4666 
L 3309 4134 
L 1259 4134 
L 1259 2759 
L 3109 2759 
L 3109 2228 
L 1259 2228 
L 1259 0 
L 628 0 
L 628 4666 
z
" transform="scale(0.015625)"/>
      </defs>
      <use xlink:href="#DejaVuSans-64"/>
      <use xlink:href="#DejaVuSans-73" transform="translate(63.476562 0)"/>
      <use xlink:href="#DejaVuSans-6d" transform="translate(115.576172 0)"/>
      <use xlink:href="#DejaVuSans-63" transform="translate(212.988281 0)"/>
      <use xlink:href="#DejaVuSans-46" transform="translate(267.96875 0)"/>
      <use xlink:href="#DejaVuSans-6f" transform="translate(321.863281 0)"/>
      <use xlink:href="#DejaVuSans-61" transform="translate(383.044922 0)"/>
      <use xlink:href="#DejaVuSans-6d" transform="translate(444.324219 0)"/>
     </g>
    </g>
   </g>
  </g>
 </g>
 <defs>
  <clipPath id="p4d9897d4a6">
   <rect x="63.47" y="26.88" width="645.73" height="359.848"/>
  </clipPath>
 </defs>
</svg>
